<svg xmlns="http://www.w3.org/2000/svg" enable-background="new 0 0 24 24" viewBox="0 0 24 24" id="artificial-intelligence"><g><path d="M9 10c0 .5522.4478 1 1 1h5c.3789 0 .7251-.2139.8945-.5527L17.6182 7H20c.5522 0 1-.4478 1-1s-.4478-1-1-1h-3c-.3789 0-.7251.2139-.8945.5527L14.3818 9H10C9.4478 9 9 9.4478 9 10zM13 13h-3c-.5522 0-1 .4478-1 1s.4478 1 1 1h2.5859l3.707 3.707C16.4805 18.8945 16.7349 19 17 19h3c.5522 0 1-.4478 1-1s-.4478-1-1-1h-2.5859l-3.707-3.707C13.5195 13.1055 13.2651 13 13 13z"></path><path d="M4.2451 17.2959c.4888.563 1.0859.9995 1.7559 1.2891C6.0464 20.4761 7.5986 22 9.5 22c1.9297 0 3.5-1.5703 3.5-3.5V17c0-.5522-.4478-1-1-1s-1 .4478-1 1v1.5c0 .8271-.6729 1.5-1.5 1.5S8 19.3271 8 18.5c0-.1147.0156-.231.0498-.3657.0659-.2607.0234-.5371-.1172-.7666-.1401-.229-.3672-.3926-.6294-.4521-.604-.1382-1.1392-.4604-1.5503-.9331C5.2676 15.4263 5 14.7222 5 14c0-.5278.1367-1.0327.4067-1.501.1777-.3086.1777-.6895 0-.998C5.1367 11.0327 5 10.5278 5 10c0-.7222.2676-1.4263.7549-1.9844.4092-.4707.9443-.793 1.5483-.9312.2622-.0596.4893-.2231.6294-.4521.1406-.2295.1831-.5059.1172-.7666C8.0156 5.731 8 5.6147 8 5.5 8 4.6729 8.6729 4 9.5 4S11 4.6729 11 5.5V7c0 .5522.4478 1 1 1s1-.4478 1-1V5.5C13 3.5703 11.4297 2 9.5 2 7.5986 2 6.0464 3.5244 6.001 5.415 5.3311 5.7041 4.7344 6.1406 4.2471 6.7021 3.4429 7.6226 3 8.7939 3 10c0 .6855.1445 1.3677.4214 2C3.1445 12.6323 3 13.3145 3 14 3 15.2061 3.4429 16.3774 4.2451 17.2959zM20 14c.5522 0 1-.4478 1-1s-.4478-1-1-1h-3c-.5522 0-1 .4478-1 1s.4478 1 1 1H20z"></path></g></svg>